<svg id="Layer_1" data-name="Layer 1" xmlns="http://www.w3.org/2000/svg" viewBox="0 0 173.06 73.73"><defs><style>.cls-1{fill:#fff;}</style></defs><path class="cls-1" d="M23.88,128.15a4.92,4.92,0,0,1-1.83-.35,5.17,5.17,0,0,1-2.49-2.75,33.84,33.84,0,0,1-2-6.6q-1-4.41-1.88-10.48t-1.32-11q-.55-7.45-.71-10.94t-.15-9c0-2.14,0-3.78,0-4.93s.06-2.11.13-2.87.15-1.58.26-2.46q.85-7.77,2.13-8.33a2,2,0,0,1,1-.31,2.3,2.3,0,0,1,1.48.61Q21,61,21.7,70.82c0,.68.06,1.31.1,1.91s.06,1,.1,1.24.08,1.12.15,2.54.14,3.1.2,5q.06,2.64.18,4.92c.09,1.52.15,2.64.18,3.35v.31c.07.54.12,1.1.15,1.67s0,1,0,1.32,0,.67,0,1a3.94,3.94,0,0,0,.07.69l.11.3c.06,0,.13-.25.2-.76A198.36,198.36,0,0,1,28.3,74.58c.54-1.59,1.16-3.17,1.85-4.72S31.48,67,32.05,66a8.28,8.28,0,0,1,3.56-3.41,4.8,4.8,0,0,1,1.68-.3,5.05,5.05,0,0,1,2.74.84,6.34,6.34,0,0,1,2.13,2.26,15.55,15.55,0,0,1,1.47,5.43,28.58,28.58,0,0,1,.1,3q0,4.67-.35,12.69v1.32a5.56,5.56,0,0,0,0,.87v.1a1.61,1.61,0,0,1,.1.25c.07,0,.15-.13.26-.38s.27-.73.53-1.42.6-1.67,1-2.92c.13-.34.27-.71.41-1.12q3-8.28,4.92-12.57a42.15,42.15,0,0,1,3.81-7.08,22.6,22.6,0,0,1,3.78-4.6,5.31,5.31,0,0,1,3.48-1.39h.41q3.9.3,5.79,5.43a21.48,21.48,0,0,1,.86,5.28l.1,2.54q0,1.58-.18,3.48c-.11,1.27-.33,3-.63,5.2l-.46,3.71L67,87.63c-.2,1.15-.37,2.27-.5,3.35-.11.64-.19,1.15-.26,1.52-.1.78-.27,1.85-.51,3.2-.06.44-.13.88-.2,1.32-.37,2.41-.74,5-1.09,7.7s-.59,4.73-.69,6a10.72,10.72,0,0,0-.15,1.25c0,.46-.07.84-.1,1.14a13.74,13.74,0,0,0-.18,1.68c0,.78-.09,1.59-.13,2.43-.1,1.7-.25,3.28-.45,4.75a23,23,0,0,1-.61,3.18,4.53,4.53,0,0,1-.81,1.37,4.21,4.21,0,0,1-1.22,1,3.92,3.92,0,0,1-.56.23,2.15,2.15,0,0,1-.61.08l-.46,0a3.17,3.17,0,0,1-2.59-1.42,13.17,13.17,0,0,1-1.62-4.68c-.1-.5-.19-1-.26-1.49a19.1,19.1,0,0,1-.12-2.26c0-1,0-2.61,0-4.78q0-7,.53-12.57t2.26-15.41v-.1c.21-1.08.39-2.11.56-3.07s.31-1.69.41-2.16c.37-2,.81-4.86,1.32-8.68q.51-3.77.51-4.47c0-.21,0-.31,0-.31s-.14.12-.31.36-.35.52-.56.86a39.36,39.36,0,0,0-3.12,6.86q-1.5,4.15-4.09,13.25c-.85,3-1.51,5.26-2,6.93l-1.27,4.27-1.2,3.93a16.59,16.59,0,0,1-1.6,3.94,4.92,4.92,0,0,1-2,1.85,2.78,2.78,0,0,1-.89.38,8.23,8.23,0,0,1-2.29,0,2.78,2.78,0,0,1-.89-.38q-2.13-1-3.09-4.52A27.41,27.41,0,0,1,35,98.57a83.64,83.64,0,0,1-.33-8.45q0-4.68.21-11.73V76.1a3.68,3.68,0,0,0-.05-1s-.1.09-.18.28a9.17,9.17,0,0,0-.36,1c-.15.51-.36,1.23-.63,2.18q-1.22,4.22-2.36,9.9c-.76,3.8-1.31,7.08-1.65,9.86L29.31,101q-.3,2.43-.53,7t-.33,9.52c0,2.44-.11,4.22-.23,5.36a7.42,7.42,0,0,1-.63,2.56,5.25,5.25,0,0,1-1,1.5,3.73,3.73,0,0,1-1.32.94A3.52,3.52,0,0,1,23.88,128.15Z" transform="translate(-13.47 -57.52)"/><path class="cls-1" d="M96.29,126.83a3.34,3.34,0,0,1-1.47-.35,4.09,4.09,0,0,1-1.8-2,22.33,22.33,0,0,1-1.45-4.59c-.17-.55-.3-1-.41-1.48a9,9,0,0,0-.25-.91L90.2,119q-3,6.34-8.28,6.35h-.66a8.33,8.33,0,0,1-7.11-5.13A17.44,17.44,0,0,1,72.71,116a36.57,36.57,0,0,1-.64-5.89l0-2.48a50.62,50.62,0,0,1,1.32-12A13.57,13.57,0,0,1,74.69,92a4.44,4.44,0,0,1,1.85-1.78A3.19,3.19,0,0,1,78,89.81h.2q2.49.15,3.41,3.56c.13.71.2,3.7.2,9,0,2.5,0,4.36.05,5.58s.08,2.11.13,2.67a11.33,11.33,0,0,0,.23,1.5c0,.17.06.33.1.5s.13.57.2.79a1.51,1.51,0,0,0,.15.38h0c.07,0,.17-.08.31-.25.3-.48.88-1.53,1.73-3.18s1.7-3.36,2.59-5.15c1.11-2.34,2-4.18,2.66-5.54s1.19-2.34,1.58-3a6.13,6.13,0,0,1,1-1.32,4,4,0,0,1,1-.63l.69-.26a2.17,2.17,0,0,1,.68-.1l.56.05A4.4,4.4,0,0,1,99.49,97a5,5,0,0,1,.48,1.2,8.84,8.84,0,0,1,.26,1.77c0,.77.07,1.89.07,3.38l-.1,8.18c-.17,8-.52,12.46-1.06,13.5A3.3,3.3,0,0,1,96.29,126.83Z" transform="translate(-13.47 -57.52)"/><path class="cls-1" d="M131.08,131.25a3.8,3.8,0,0,1-1.58-.43,4,4,0,0,1-1.57-1.4,36.85,36.85,0,0,1-2.59-8.63c0-.14-.09-.2-.15-.2a2.75,2.75,0,0,0-.87.61s0,0,0,0a11.86,11.86,0,0,1-7.11,2.48,11,11,0,0,1-4.36-.88,9.62,9.62,0,0,1-3.56-2.62,13,13,0,0,1-2.56-4.6,23.82,23.82,0,0,1-.89-6.42,19,19,0,0,1,2-8.45,14.19,14.19,0,0,1,5.28-6.07,12.15,12.15,0,0,1,3-1.42,11.34,11.34,0,0,1,2.89-.46,20.89,20.89,0,0,1,2.41.15,17.62,17.62,0,0,1,2.31.41,3.44,3.44,0,0,0,.72.1c.27,0,.45-.31.55-.91s.21-1.61.31-3c.1-1.63.32-3.84.66-6.65a58.09,58.09,0,0,1,1.65-8.74,18.43,18.43,0,0,1,2.31-5.63c.78-1.05,1.54-1.58,2.28-1.58,1.12,0,2,.88,2.54,2.74a28.41,28.41,0,0,1,.26,4.73q0,4.81-.46,9.54-.25,3.61-.51,8.56t-.25,12.26q0,4.83,0,8.23c0,2.27.06,4.87.13,7.82,0,1.79.07,3.89.1,6.3,0,.61,0,1.07,0,1.39a5.7,5.7,0,0,1-.08.71c0,.16-.07.28-.1.39a2.77,2.77,0,0,1-1.27,1.24A3.51,3.51,0,0,1,131.08,131.25ZM118.23,114.7a8.86,8.86,0,0,0,2.67-.69c.93-.39,2.12-1,3.58-1.75,0-1.8,0-3.32,0-4.57,0-2.37,0-4-.08-5s-.18-1.45-.38-1.55c-.85-.61-2.35-.92-4.52-.92a4.62,4.62,0,0,0-3.53,2.39,10.46,10.46,0,0,0-1.29,5.48,14.28,14.28,0,0,0,.22,2.75,7.79,7.79,0,0,0,.84,2.18,3.74,3.74,0,0,0,.92,1.27,1.9,1.9,0,0,0,1.21.36Z" transform="translate(-13.47 -57.52)"/><path class="cls-1" d="M146.46,128.15a3.9,3.9,0,0,1-1.77-.4q-3-1.12-3.56-9-.66-8.43-.66-14.88a54,54,0,0,1,.36-7.06,16,16,0,0,1,.71-3.1,9.15,9.15,0,0,1,1.12-2.38,4,4,0,0,1,3.5-1.93l.66,0a3.72,3.72,0,0,1,3.1,2.18,7.31,7.31,0,0,1,.81,2.34,22,22,0,0,1,.25,3.81q0,2.83-.3,7.71c-.2,3.53-.3,6.91-.3,10.16,0,1.76,0,3.49.1,5.18v.76a20.81,20.81,0,0,1-.16,2.59,6.39,6.39,0,0,1-.66,2.29,3.13,3.13,0,0,1-1.37,1.27A4.22,4.22,0,0,1,146.46,128.15Zm-.4-43a5,5,0,0,1-2.29-.56,3.88,3.88,0,0,1-1.29-1,7,7,0,0,1-.89-1.44,3.44,3.44,0,0,1-.28-.69,2.92,2.92,0,0,1-.08-.74l.11-1.62a10.79,10.79,0,0,1,.43-2.77,4.81,4.81,0,0,1,1.09-1.8,3.79,3.79,0,0,1,3.25-1.42H147a1.78,1.78,0,0,1,.69.12c.18.09.41.22.68.38q2.34,1.34,2.39,5.59v.46a5.36,5.36,0,0,1-.91,3.5A4.72,4.72,0,0,1,146.06,85.19Z" transform="translate(-13.47 -57.52)"/><path class="cls-1" d="M170.13,128.15c-.51,0-1,0-1.52-.05a11.89,11.89,0,0,1-9-5.58,17.86,17.86,0,0,1-2.26-5.23,23.82,23.82,0,0,1-.84-6.25c0-.58,0-1.15.05-1.73a19.55,19.55,0,0,1,.46-3.17,34.48,34.48,0,0,1,1.06-3.33,26,26,0,0,1,6.55-10.2,26.38,26.38,0,0,1,2.62-2.09,15.18,15.18,0,0,1,2.51-1.47A11.83,11.83,0,0,1,174.24,88a11.69,11.69,0,0,1,7.06,2.44,7,7,0,0,1,2.21,2.87,9.07,9.07,0,0,1,.79,3.63,7.23,7.23,0,0,1-.16,1.53,7.71,7.71,0,0,1-.93,2.23,10.57,10.57,0,0,1-1.6,2.13,5.91,5.91,0,0,1-3.71,1.78,1.91,1.91,0,0,1-1.78-1,2.16,2.16,0,0,1-.05-.46,6.6,6.6,0,0,1,.15-1.17,12.32,12.32,0,0,0,.36-2.94,4.89,4.89,0,0,0-.31-2,3,3,0,0,0-.73-1,2.3,2.3,0,0,0-1-.53l-.16,0a4.19,4.19,0,0,0-2,.86,13.2,13.2,0,0,0-2.46,2.14,16.39,16.39,0,0,0-4,10.66,15.9,15.9,0,0,0,.66,4.52q1.28,4,3.81,5.13a3.67,3.67,0,0,0,1.22.2,10.32,10.32,0,0,0,5.08-1.83,9.41,9.41,0,0,0,3.05-3,6.23,6.23,0,0,1,1.95-1.86,4.22,4.22,0,0,1,2.11-.63,2.8,2.8,0,0,1,1.57.46,2.44,2.44,0,0,1,1,1.42,3.51,3.51,0,0,1,.2,1.17,7.13,7.13,0,0,1-1.07,3.35,18.85,18.85,0,0,1-8.53,8.58A15.25,15.25,0,0,1,170.13,128.15Z" transform="translate(-13.47 -57.52)"/></svg>